<?xml version="1.0" encoding="UTF-8"?>
<!DOCTYPE svg PUBLIC "-//W3C//DTD SVG 1.1//EN" "http://www.w3.org/Graphics/SVG/1.1/DTD/svg11.dtd">
<!-- Creator: CorelDRAW -->
<svg xmlns="http://www.w3.org/2000/svg" xml:space="preserve" width="600px" height="566px" version="1.1" shape-rendering="geometricPrecision" text-rendering="geometricPrecision" image-rendering="optimizeQuality" fill-rule="evenodd" clip-rule="evenodd"
viewBox="0 0 600 565.5"
 xmlns:xlink="http://www.w3.org/1999/xlink"
 xmlns:xodm="http://www.corel.com/coreldraw/odm/2003">
 <defs>
   <linearGradient id="id0" gradientUnits="userSpaceOnUse" x1="100.46" y1="494.76" x2="499.54" y2="71.24">
    <stop offset="0" stop-opacity="1" stop-color="#23ABF7"/>
    <stop offset="1" stop-opacity="1" stop-color="#FECC13"/>
   </linearGradient>
 </defs>
 <g id="Layer_x0020_1">
  <metadata id="CorelCorpID_0Corel-Layer"/>
  <path fill="url(#id0)" fill-rule="nonzero" d="M404.78 4.19c-0.9,-1.02 -2.06,-1.95 -3.43,-2.64 -1.37,-0.69 -2.95,-1.14 -4.53,-1.23 -3.16,-0.18 -6.3,1.07 -8.37,2.91 -0.52,0.47 -0.97,0.97 -1.4,1.53 -0.44,0.57 -0.85,1.21 -1.2,1.89 -0.35,0.68 -0.63,1.41 -0.83,2.18 -0.21,0.76 -0.33,1.58 -0.38,2.38 -0.18,3.19 0.94,6.11 2.89,8.31 1.95,2.19 4.72,3.65 7.91,3.84 0.8,0.05 1.62,0.02 2.41,-0.1 0.79,-0.11 1.54,-0.3 2.26,-0.57 0.71,-0.26 1.4,-0.6 2.01,-0.96 0.62,-0.37 1.17,-0.76 1.69,-1.22 2.07,-1.84 3.68,-4.8 3.87,-7.96 0.1,-1.58 -0.16,-3.21 -0.69,-4.65 -0.52,-1.44 -1.31,-2.7 -2.21,-3.71zm-350 359.99c-0.9,-1.01 -2.06,-1.94 -3.43,-2.63 -1.37,-0.69 -2.95,-1.14 -4.53,-1.23 -3.16,-0.18 -6.3,1.07 -8.37,2.91 -0.52,0.47 -0.97,0.96 -1.4,1.53 -0.43,0.57 -0.85,1.21 -1.2,1.89 -0.34,0.68 -0.63,1.41 -0.83,2.18 -0.21,0.76 -0.33,1.58 -0.38,2.38 -0.18,3.19 0.94,6.11 2.89,8.3 1.95,2.2 4.72,3.66 7.91,3.85 0.8,0.05 1.62,0.02 2.41,-0.1 0.79,-0.11 1.54,-0.3 2.26,-0.57 0.71,-0.27 1.4,-0.6 2.01,-0.96 0.62,-0.37 1.17,-0.76 1.69,-1.22 2.07,-1.84 3.68,-4.81 3.87,-7.96 0.1,-1.58 -0.16,-3.21 -0.68,-4.65 -0.53,-1.44 -1.32,-2.7 -2.22,-3.72zm69.23 40.01c-0.9,-1.02 -2.06,-1.95 -3.43,-2.64 -1.37,-0.69 -2.95,-1.14 -4.53,-1.23 -3.16,-0.18 -6.3,1.07 -8.37,2.91 -0.52,0.46 -0.97,0.96 -1.4,1.53 -0.43,0.57 -0.85,1.21 -1.2,1.89 -0.34,0.68 -0.63,1.41 -0.83,2.17 -0.2,0.77 -0.33,1.59 -0.38,2.39 -0.18,3.19 0.94,6.11 2.89,8.3 1.95,2.2 4.72,3.66 7.91,3.85 0.8,0.05 1.62,0.02 2.41,-0.1 0.79,-0.11 1.54,-0.3 2.26,-0.57 0.71,-0.27 1.4,-0.6 2.01,-0.96 0.62,-0.37 1.17,-0.76 1.69,-1.22 2.07,-1.84 3.68,-4.81 3.87,-7.96 0.1,-1.58 -0.16,-3.21 -0.68,-4.65 -0.53,-1.44 -1.32,-2.7 -2.22,-3.71zm461.54 -296.16c-0.9,-1.02 -2.06,-1.95 -3.43,-2.64 -1.37,-0.68 -2.95,-1.13 -4.53,-1.22 -3.16,-0.18 -6.3,1.06 -8.37,2.91 -0.52,0.46 -0.97,0.96 -1.4,1.53 -0.44,0.57 -0.85,1.21 -1.2,1.89 -0.35,0.68 -0.63,1.4 -0.83,2.17 -0.21,0.77 -0.33,1.59 -0.38,2.38 -0.18,3.2 0.94,6.12 2.89,8.31 1.95,2.19 4.71,3.65 7.91,3.84 0.8,0.05 1.62,0.02 2.41,-0.09 0.79,-0.11 1.54,-0.31 2.25,-0.57 0.72,-0.27 1.41,-0.6 2.02,-0.97 0.62,-0.36 1.17,-0.75 1.68,-1.21 2.08,-1.84 3.69,-4.81 3.88,-7.97 0.09,-1.58 -0.16,-3.2 -0.69,-4.65 -0.52,-1.44 -1.31,-2.69 -2.21,-3.71zm-562.47 123.01c-0.01,-1.36 -0.24,-2.82 -0.81,-4.24 -0.58,-1.43 -1.5,-2.82 -2.61,-3.94 -2.21,-2.23 -5.16,-3.36 -8.12,-3.36 -2.96,0 -5.91,1.13 -8.13,3.36 -1.1,1.12 -2.02,2.51 -2.6,3.94 -0.57,1.42 -0.81,2.88 -0.81,4.24 0,43.61 0,87.21 0,130.81 0,1.36 0.24,2.82 0.81,4.25 0.58,1.42 1.5,2.81 2.6,3.93 2.22,2.23 5.17,3.36 8.13,3.36 2.96,0 5.91,-1.13 8.12,-3.36 1.11,-1.12 2.03,-2.51 2.61,-3.93 0.57,-1.43 0.8,-2.89 0.81,-4.25 0,-43.6 0,-87.2 0,-130.81zm484.38 -207.65c1.36,-0.01 2.83,-0.24 4.25,-0.81 1.43,-0.58 2.82,-1.5 3.93,-2.6 2.23,-2.22 3.36,-5.17 3.36,-8.13 0,-2.96 -1.13,-5.91 -3.36,-8.13 -1.11,-1.1 -2.5,-2.02 -3.93,-2.6 -1.42,-0.57 -2.89,-0.8 -4.25,-0.81 -25.56,0 -51.13,0 -76.69,0 -1.36,0.01 -2.82,0.24 -4.25,0.81 -1.42,0.58 -2.81,1.5 -3.93,2.6 -2.23,2.22 -3.36,5.17 -3.36,8.13 0,2.96 1.13,5.91 3.36,8.13 1.12,1.1 2.51,2.02 3.93,2.6 1.43,0.57 2.89,0.8 4.25,0.81 25.56,0 51.13,0 76.69,0zm-311.31 11.54c-19,-0.04 -39.57,3.47 -59.45,11.33 -9.94,3.93 -19.7,8.96 -28.94,15 -9.24,6.04 -17.95,13.1 -25.83,20.98 -7.88,7.88 -14.94,16.59 -20.98,25.83 -6.04,9.24 -11.07,19 -15,28.94 -7.87,19.88 -11.37,40.45 -11.33,59.46 0,46.92 0,93.84 0,140.76 0,1.36 0.23,2.83 0.81,4.25 0.57,1.43 1.49,2.82 2.6,3.93 2.21,2.23 5.17,3.36 8.12,3.36 2.96,0 5.92,-1.13 8.13,-3.36 1.11,-1.11 2.03,-2.5 2.6,-3.93 0.58,-1.42 0.81,-2.89 0.81,-4.25 0,-46.92 0,-93.84 0,-140.76 -0.03,-16.29 2.98,-33.93 9.72,-50.97 3.37,-8.52 7.68,-16.89 12.85,-24.8 5.18,-7.92 11.23,-15.38 17.99,-22.14 6.75,-6.76 14.22,-12.81 22.14,-17.99 7.91,-5.17 16.28,-9.48 24.8,-12.85 17.04,-6.74 34.68,-9.75 50.96,-9.72 46.93,0 93.85,0 140.77,0 1.36,0 2.82,-0.23 4.25,-0.81 1.43,-0.57 2.82,-1.49 3.93,-2.6 2.23,-2.21 3.36,-5.17 3.36,-8.12 0,-2.96 -1.13,-5.92 -3.36,-8.13 -1.11,-1.11 -2.5,-2.03 -3.93,-2.6 -1.43,-0.58 -2.89,-0.81 -4.25,-0.81 -46.92,0 -93.84,0 -140.77,0zm67.59 34.61c-22.53,0 -45.06,0 -67.59,0 -14.93,-0.03 -31.09,2.73 -46.71,8.91 -7.81,3.09 -15.48,7.03 -22.74,11.78 -7.26,4.75 -14.1,10.29 -20.29,16.49 -6.2,6.19 -11.74,13.03 -16.49,20.29 -4.75,7.26 -8.69,14.93 -11.78,22.74 -6.18,15.62 -8.94,31.78 -8.91,46.72 0,22.52 0,45.05 0,67.58 0.01,1.36 0.24,2.82 0.81,4.24 0.58,1.43 1.5,2.82 2.6,3.94 2.22,2.23 5.17,3.36 8.13,3.36 2.96,0 5.91,-1.13 8.12,-3.36 1.11,-1.12 2.03,-2.51 2.61,-3.94 0.57,-1.42 0.8,-2.88 0.81,-4.24 0,-22.53 0,-45.06 0,-67.58 -0.03,-12.22 2.23,-25.45 7.28,-38.23 2.53,-6.39 5.76,-12.66 9.65,-18.6 3.88,-5.94 8.42,-11.54 13.48,-16.6 5.07,-5.07 10.67,-9.61 16.61,-13.49 5.94,-3.89 12.21,-7.12 18.6,-9.64 12.78,-5.06 26.01,-7.31 38.22,-7.29 22.53,0 45.06,0 67.59,0 1.36,-0.01 2.82,-0.24 4.24,-0.81 1.43,-0.58 2.82,-1.5 3.94,-2.6 2.23,-2.22 3.35,-5.17 3.35,-8.13 0,-2.95 -1.12,-5.91 -3.35,-8.12 -1.12,-1.11 -2.51,-2.03 -3.94,-2.61 -1.42,-0.57 -2.88,-0.8 -4.24,-0.81zm132.41 34.62c-41.02,0 -82.05,0 -123.07,0 -1.36,0 -2.82,0.23 -4.25,0.81 -1.43,0.57 -2.82,1.49 -3.93,2.6 -2.23,2.21 -3.36,5.17 -3.36,8.13 0,2.95 1.13,5.91 3.36,8.12 1.11,1.11 2.5,2.03 3.93,2.6 1.43,0.58 2.89,0.81 4.25,0.81 41.02,0 82.05,0 123.07,0 1.36,0 2.83,-0.23 4.25,-0.81 1.43,-0.57 2.82,-1.49 3.93,-2.6 2.23,-2.21 3.36,-5.17 3.36,-8.12 0,-2.96 -1.13,-5.92 -3.36,-8.13 -1.11,-1.11 -2.5,-2.03 -3.93,-2.6 -1.42,-0.58 -2.89,-0.81 -4.25,-0.81zm43.24 3.87c-0.9,-1.02 -2.05,-1.95 -3.42,-2.64 -1.37,-0.68 -2.96,-1.13 -4.54,-1.22 -3.16,-0.18 -6.29,1.06 -8.37,2.91 -0.51,0.46 -0.96,0.96 -1.4,1.53 -0.43,0.57 -0.84,1.21 -1.19,1.89 -0.35,0.68 -0.63,1.4 -0.83,2.17 -0.21,0.77 -0.34,1.59 -0.38,2.38 -0.19,3.2 0.94,6.12 2.88,8.31 1.95,2.19 4.72,3.65 7.91,3.84 0.8,0.05 1.63,0.02 2.42,-0.09 0.78,-0.11 1.53,-0.31 2.25,-0.57 0.72,-0.27 1.4,-0.6 2.02,-0.97 0.61,-0.36 1.16,-0.75 1.68,-1.21 2.08,-1.84 3.68,-4.81 3.87,-7.97 0.1,-1.58 -0.16,-3.2 -0.68,-4.65 -0.52,-1.44 -1.31,-2.69 -2.22,-3.71zm-132.41 -34.61c-0.91,-1.02 -2.06,-1.95 -3.43,-2.64 -1.37,-0.69 -2.96,-1.14 -4.54,-1.23 -3.15,-0.18 -6.29,1.07 -8.36,2.91 -0.52,0.47 -0.97,0.97 -1.4,1.53 -0.44,0.57 -0.85,1.21 -1.2,1.89 -0.35,0.68 -0.63,1.41 -0.83,2.18 -0.21,0.77 -0.33,1.58 -0.38,2.38 -0.19,3.19 0.94,6.11 2.89,8.31 1.94,2.19 4.71,3.65 7.91,3.84 0.8,0.05 1.62,0.02 2.41,-0.1 0.79,-0.11 1.54,-0.3 2.25,-0.57 0.72,-0.26 1.4,-0.6 2.02,-0.96 0.61,-0.37 1.16,-0.76 1.68,-1.22 2.08,-1.84 3.69,-4.8 3.88,-7.96 0.09,-1.58 -0.16,-3.21 -0.69,-4.65 -0.52,-1.44 -1.31,-2.7 -2.21,-3.71zm101.81 -3.88c-25.27,0 -50.55,0 -75.82,0 -1.36,0.01 -2.82,0.24 -4.25,0.81 -1.43,0.58 -2.82,1.5 -3.93,2.61 -2.23,2.21 -3.36,5.17 -3.36,8.12 0,2.96 1.13,5.91 3.36,8.13 1.11,1.1 2.5,2.02 3.93,2.6 1.43,0.57 2.89,0.8 4.25,0.81 25.27,0 50.55,0 75.82,0 1.36,-0.01 2.82,-0.24 4.25,-0.81 1.42,-0.58 2.82,-1.5 3.93,-2.6 2.23,-2.22 3.36,-5.17 3.36,-8.13 0,-2.95 -1.13,-5.91 -3.36,-8.12 -1.11,-1.11 -2.51,-2.03 -3.93,-2.61 -1.43,-0.57 -2.89,-0.8 -4.25,-0.81zm-319.4 366.51c-0.9,-1.01 -2.05,-1.95 -3.42,-2.63 -1.37,-0.69 -2.96,-1.14 -4.54,-1.23 -3.16,-0.18 -6.29,1.06 -8.36,2.91 -0.52,0.46 -0.97,0.96 -1.41,1.53 -0.43,0.57 -0.84,1.21 -1.19,1.89 -0.35,0.68 -0.63,1.4 -0.84,2.17 -0.2,0.77 -0.33,1.59 -0.37,2.39 -0.19,3.19 0.94,6.11 2.89,8.3 1.94,2.19 4.71,3.65 7.9,3.85 0.8,0.04 1.63,0.01 2.42,-0.1 0.78,-0.11 1.53,-0.31 2.25,-0.57 0.72,-0.27 1.4,-0.6 2.02,-0.97 0.61,-0.36 1.16,-0.75 1.68,-1.21 2.08,-1.84 3.68,-4.81 3.87,-7.97 0.1,-1.58 -0.16,-3.2 -0.68,-4.64 -0.52,-1.45 -1.31,-2.7 -2.22,-3.72zm-69.23 -47.25c-0.9,-1.02 -2.05,-1.95 -3.42,-2.64 -1.37,-0.68 -2.96,-1.13 -4.54,-1.22 -3.16,-0.18 -6.29,1.06 -8.36,2.91 -0.52,0.46 -0.97,0.96 -1.41,1.53 -0.43,0.57 -0.84,1.21 -1.19,1.89 -0.35,0.68 -0.63,1.4 -0.84,2.17 -0.2,0.77 -0.33,1.58 -0.37,2.38 -0.19,3.2 0.94,6.12 2.88,8.31 1.95,2.19 4.72,3.65 7.91,3.84 0.8,0.05 1.63,0.02 2.41,-0.09 0.79,-0.12 1.54,-0.31 2.26,-0.57 0.72,-0.27 1.4,-0.61 2.02,-0.97 0.61,-0.36 1.16,-0.75 1.68,-1.21 2.08,-1.84 3.68,-4.81 3.87,-7.97 0.1,-1.58 -0.16,-3.21 -0.68,-4.65 -0.52,-1.44 -1.31,-2.69 -2.22,-3.71zm72.15 -55.52c-0.01,-1.36 -0.24,-2.82 -0.81,-4.25 -0.58,-1.43 -1.5,-2.82 -2.61,-3.93 -2.21,-2.23 -5.16,-3.36 -8.12,-3.36 -2.96,0 -5.91,1.13 -8.13,3.36 -1.1,1.11 -2.02,2.5 -2.6,3.93 -0.57,1.43 -0.8,2.89 -0.81,4.25 0,25.27 0,50.55 0,75.82 0.01,1.36 0.24,2.82 0.81,4.25 0.58,1.43 1.5,2.82 2.6,3.93 2.22,2.23 5.17,3.36 8.13,3.36 2.96,0 5.91,-1.13 8.12,-3.36 1.11,-1.11 2.03,-2.5 2.61,-3.93 0.57,-1.43 0.8,-2.89 0.81,-4.25 0,-25.27 0,-50.55 0,-75.82zm146.15 -229.12c-14.1,0 -28.2,0 -42.31,0 -10.85,-0.02 -22.62,1.96 -33.97,6.48 -11.36,4.51 -22.3,11.56 -31.3,20.55 -8.99,9 -16.04,19.94 -20.55,31.3 -4.52,11.35 -6.5,23.12 -6.48,33.98 0,14.1 0,28.2 0,42.3 0,1.36 0.23,2.82 0.81,4.25 0.57,1.43 1.49,2.82 2.6,3.93 2.21,2.23 5.17,3.36 8.13,3.36 2.95,0 5.91,-1.13 8.12,-3.36 1.11,-1.11 2.03,-2.5 2.6,-3.93 0.58,-1.43 0.81,-2.89 0.81,-4.25 0,-14.1 0,-28.2 0,-42.3 -0.01,-8.15 1.48,-16.97 4.86,-25.49 3.39,-8.51 8.67,-16.72 15.42,-23.47 6.75,-6.75 14.95,-12.03 23.47,-15.41 8.52,-3.39 17.34,-4.88 25.48,-4.87 14.11,0 28.21,0 42.31,0 1.36,0 2.82,-0.23 4.25,-0.81 1.43,-0.57 2.82,-1.49 3.93,-2.6 2.23,-2.21 3.36,-5.17 3.36,-8.12 0,-2.96 -1.13,-5.92 -3.36,-8.13 -1.11,-1.11 -2.5,-2.03 -3.93,-2.6 -1.43,-0.58 -2.89,-0.81 -4.25,-0.81zm-111.54 342.3c0,-1.36 -0.23,-2.82 -0.81,-4.24 -0.57,-1.43 -1.49,-2.82 -2.6,-3.93 -2.21,-2.24 -5.17,-3.36 -8.12,-3.36 -2.96,0 -5.92,1.12 -8.13,3.36 -1.11,1.11 -2.03,2.5 -2.6,3.93 -0.58,1.42 -0.81,2.88 -0.81,4.24 0,18.76 0,37.52 0,56.27 0,1.64 0,3.28 0,4.91 0,1.36 0.23,2.82 0.81,4.25 0.57,1.43 1.49,2.82 2.6,3.93 2.21,2.23 5.17,3.36 8.13,3.36 2.95,0 5.91,-1.13 8.12,-3.36 1.11,-1.11 2.03,-2.5 2.6,-3.93 0.58,-1.43 0.81,-2.89 0.81,-4.25 0,-1.63 0,-3.27 0,-4.91 0,-18.75 0,-37.51 0,-56.27zm0 -173.07c0,-1.36 -0.23,-2.82 -0.81,-4.25 -0.57,-1.43 -1.49,-2.82 -2.6,-3.93 -2.21,-2.23 -5.17,-3.36 -8.12,-3.36 -2.96,0 -5.92,1.13 -8.13,3.36 -1.11,1.11 -2.03,2.5 -2.6,3.93 -0.58,1.43 -0.81,2.89 -0.81,4.25 0,32.97 0,65.95 0,98.92 0,1.64 0,3.27 0,4.91 0,1.36 0.23,2.82 0.81,4.25 0.57,1.42 1.49,2.81 2.6,3.93 2.21,2.23 5.17,3.36 8.13,3.36 2.95,0 5.91,-1.13 8.12,-3.36 1.11,-1.12 2.03,-2.51 2.6,-3.93 0.58,-1.43 0.81,-2.89 0.81,-4.25 0,-1.64 0,-3.27 0,-4.91 0,-32.97 0,-65.95 0,-98.92zm-103.84 157.69c-0.01,-1.36 -0.24,-2.82 -0.81,-4.25 -0.58,-1.42 -1.5,-2.81 -2.61,-3.93 -2.21,-2.23 -5.16,-3.36 -8.12,-3.36 -2.96,0 -5.91,1.13 -8.13,3.36 -1.1,1.12 -2.02,2.51 -2.6,3.93 -0.57,1.43 -0.81,2.89 -0.81,4.25 0,33.33 0,66.67 0,100 0,1.36 0.24,2.82 0.81,4.25 0.58,1.42 1.5,2.81 2.6,3.93 2.22,2.23 5.17,3.36 8.13,3.36 2.96,0 5.91,-1.13 8.12,-3.36 1.11,-1.12 2.03,-2.51 2.61,-3.93 0.57,-1.43 0.8,-2.89 0.81,-4.25 0,-33.33 0,-66.67 0,-100zm565.38 -361.54c-48.35,0 -96.7,0 -145.05,0 -1.36,0.01 -2.82,0.24 -4.25,0.81 -1.43,0.58 -2.82,1.5 -3.93,2.61 -2.23,2.21 -3.36,5.17 -3.36,8.12 0,2.96 1.13,5.91 3.36,8.13 1.11,1.1 2.5,2.02 3.93,2.6 1.43,0.57 2.89,0.8 4.25,0.81 48.35,0 96.7,0 145.05,0 1.36,-0.01 2.82,-0.24 4.25,-0.81 1.42,-0.58 2.82,-1.5 3.93,-2.6 2.23,-2.22 3.36,-5.17 3.36,-8.13 0,-2.95 -1.13,-5.91 -3.36,-8.12 -1.11,-1.11 -2.51,-2.03 -3.93,-2.61 -1.43,-0.57 -2.89,-0.8 -4.25,-0.81zm-208.3 -30.74c-0.9,-1.02 -2.05,-1.95 -3.42,-2.64 -1.37,-0.68 -2.96,-1.13 -4.54,-1.22 -3.16,-0.18 -6.29,1.06 -8.36,2.91 -0.52,0.46 -0.97,0.96 -1.41,1.53 -0.43,0.57 -0.84,1.21 -1.19,1.89 -0.35,0.68 -0.63,1.4 -0.84,2.17 -0.2,0.77 -0.33,1.59 -0.37,2.38 -0.19,3.2 0.94,6.12 2.88,8.31 1.95,2.19 4.72,3.65 7.91,3.84 0.8,0.05 1.63,0.02 2.41,-0.09 0.79,-0.11 1.54,-0.31 2.26,-0.57 0.72,-0.27 1.4,-0.61 2.02,-0.97 0.61,-0.36 1.16,-0.75 1.68,-1.21 2.08,-1.84 3.68,-4.81 3.87,-7.97 0.1,-1.58 -0.16,-3.21 -0.68,-4.65 -0.52,-1.44 -1.31,-2.69 -2.22,-3.71zm205.39 0c-0.9,-1.02 -2.06,-1.95 -3.43,-2.64 -1.37,-0.68 -2.95,-1.13 -4.53,-1.22 -3.16,-0.18 -6.3,1.06 -8.37,2.91 -0.52,0.46 -0.97,0.96 -1.4,1.53 -0.44,0.57 -0.85,1.21 -1.2,1.89 -0.35,0.68 -0.63,1.4 -0.83,2.17 -0.21,0.77 -0.33,1.59 -0.38,2.38 -0.18,3.2 0.94,6.12 2.89,8.31 1.95,2.19 4.71,3.65 7.91,3.84 0.8,0.05 1.62,0.02 2.41,-0.09 0.79,-0.11 1.54,-0.31 2.25,-0.57 0.72,-0.27 1.41,-0.61 2.02,-0.97 0.62,-0.36 1.17,-0.75 1.68,-1.21 2.08,-1.84 3.69,-4.81 3.88,-7.97 0.09,-1.58 -0.16,-3.21 -0.69,-4.65 -0.52,-1.44 -1.31,-2.69 -2.21,-3.71zm-43.24 19.2c1.36,0 2.82,-0.23 4.25,-0.81 1.42,-0.57 2.81,-1.49 3.93,-2.6 2.23,-2.21 3.36,-5.17 3.36,-8.12 0,-2.96 -1.13,-5.92 -3.36,-8.13 -1.12,-1.11 -2.51,-2.03 -3.93,-2.6 -1.43,-0.58 -2.89,-0.81 -4.25,-0.81 -45.39,0 -90.77,0 -136.16,0 -1.36,0 -2.82,0.23 -4.24,0.81 -1.43,0.57 -2.82,1.49 -3.94,2.6 -2.23,2.21 -3.35,5.17 -3.35,8.13 0,2.95 1.12,5.91 3.35,8.12 1.12,1.11 2.51,2.03 3.94,2.6 1.42,0.58 2.88,0.81 4.24,0.81 45.39,0 90.77,0 136.16,0zm0 46.16c-25.64,0 -51.28,0 -76.92,0 -1.37,0 -2.83,0.23 -4.25,0.81 -1.43,0.57 -2.82,1.49 -3.93,2.6 -2.24,2.21 -3.36,5.17 -3.36,8.13 0,2.95 1.12,5.91 3.36,8.12 1.11,1.11 2.5,2.03 3.93,2.6 1.42,0.58 2.88,0.81 4.25,0.81 25.64,0 51.28,0 76.92,0 1.36,0 2.82,-0.23 4.25,-0.81 1.42,-0.57 2.81,-1.49 3.93,-2.6 2.23,-2.21 3.36,-5.17 3.36,-8.12 0,-2.96 -1.13,-5.92 -3.36,-8.13 -1.12,-1.11 -2.51,-2.03 -3.93,-2.6 -1.43,-0.58 -2.89,-0.81 -4.25,-0.81zm-507.69 302.3c0,49.24 0,98.47 0,147.7 0,1.36 0.23,2.82 0.81,4.24 0.57,1.43 1.49,2.82 2.6,3.94 2.21,2.23 5.17,3.36 8.12,3.36 2.96,0 5.92,-1.13 8.13,-3.36 1.11,-1.12 2.03,-2.51 2.6,-3.94 0.58,-1.42 0.81,-2.88 0.81,-4.24 0,-49.23 0,-98.46 0,-147.7 0,-1.35 -0.23,-2.82 -0.81,-4.24 -0.57,-1.43 -1.49,-2.82 -2.6,-3.93 -2.21,-2.23 -5.17,-3.36 -8.13,-3.36 -2.95,0 -5.91,1.13 -8.12,3.36 -1.11,1.11 -2.03,2.5 -2.6,3.93 -0.58,1.42 -0.81,2.89 -0.81,4.24zm161.53 -383.07c55.13,0 110.26,0 165.39,0 1.36,-0.01 2.82,-0.24 4.25,-0.81 1.42,-0.58 2.81,-1.5 3.93,-2.6 2.23,-2.22 3.36,-5.17 3.36,-8.13 0,-2.96 -1.13,-5.91 -3.36,-8.13 -1.12,-1.1 -2.51,-2.02 -3.93,-2.6 -1.43,-0.57 -2.89,-0.8 -4.25,-0.81 -55.13,0 -110.26,0 -165.39,0 -23.07,-0.04 -48.05,4.21 -72.19,13.77 -12.07,4.77 -23.93,10.87 -35.14,18.21 -11.22,7.33 -21.79,15.9 -31.37,25.47 -9.57,9.58 -18.14,20.15 -25.48,31.37 -7.33,11.21 -13.43,23.07 -18.21,35.14 -9.55,24.14 -13.8,49.12 -13.76,72.2 0,1.36 0.24,2.82 0.81,4.24 0.58,1.43 1.5,2.82 2.6,3.93 2.22,2.23 5.17,3.36 8.13,3.36 2.96,0 5.91,-1.13 8.12,-3.36 1.11,-1.11 2.03,-2.5 2.61,-3.93 0.57,-1.42 0.8,-2.88 0.81,-4.24 -0.04,-20.37 3.71,-42.41 12.14,-63.71 4.22,-10.65 9.6,-21.11 16.07,-31 6.47,-9.9 14.03,-19.23 22.48,-27.68 8.45,-8.44 17.78,-16.01 27.67,-22.48 9.9,-6.47 20.36,-11.85 31.01,-16.07 21.3,-8.42 43.34,-12.18 63.7,-12.14zm-106.76 267.61c-0.9,-1.02 -2.05,-1.95 -3.42,-2.64 -1.37,-0.69 -2.96,-1.13 -4.54,-1.22 -3.16,-0.19 -6.29,1.06 -8.36,2.91 -0.52,0.46 -0.97,0.96 -1.41,1.53 -0.43,0.57 -0.84,1.2 -1.19,1.88 -0.35,0.69 -0.63,1.41 -0.84,2.18 -0.2,0.77 -0.33,1.58 -0.37,2.38 -0.19,3.2 0.94,6.12 2.89,8.31 1.94,2.19 4.71,3.65 7.9,3.84 0.8,0.05 1.63,0.02 2.42,-0.09 0.78,-0.12 1.53,-0.31 2.25,-0.58 0.72,-0.26 1.4,-0.6 2.02,-0.96 0.61,-0.36 1.16,-0.75 1.68,-1.21 2.08,-1.84 3.68,-4.81 3.87,-7.97 0.1,-1.58 -0.16,-3.21 -0.68,-4.65 -0.52,-1.44 -1.31,-2.7 -2.22,-3.71zm2.92 187.33c-0.01,-1.36 -0.24,-2.82 -0.81,-4.24 -0.58,-1.43 -1.5,-2.82 -2.61,-3.94 -2.21,-2.23 -5.16,-3.36 -8.12,-3.36 -2.96,0 -5.91,1.13 -8.13,3.36 -1.1,1.12 -2.02,2.51 -2.6,3.94 -0.57,1.42 -0.8,2.88 -0.81,4.24 0,25.28 0,50.55 0,75.83 0.01,1.36 0.24,2.82 0.81,4.24 0.58,1.43 1.5,2.82 2.6,3.94 2.22,2.23 5.17,3.36 8.13,3.36 2.96,0 5.91,-1.13 8.12,-3.36 1.11,-1.12 2.03,-2.51 2.61,-3.94 0.57,-1.42 0.8,-2.88 0.81,-4.24 0,-25.28 0,-50.55 0,-75.83z"/>
 </g>
</svg>
